<?xml version="1.0" encoding="utf-8"?>
<!-- Generator: Adobe Illustrator 22.1.0, SVG Export Plug-In . SVG Version: 6.00 Build 0)  -->
<svg version="1.1" id="Capa_1" xmlns="http://www.w3.org/2000/svg" xmlns:xlink="http://www.w3.org/1999/xlink" x="0px" y="0px"
	 viewBox="0 0 500 200" style="enable-background:new 0 0 500 200;" xml:space="preserve">
<style type="text/css">
	.st0{fill:#00ADEF;}
	.st1{fill:#8BD2F4;}
	.st2{fill:#0081C6;}
</style>
<title>Mesa de trabajo 1</title>
<path class="st0" d="M295.5,149.9l-0.2-9.9c0-1.6-0.1-2.9-0.2-4.1l2-0.4l0.2,2.6h0.1c0.6-1.9,2.2-3.4,4.1-3.9c1.6-0.5,3.3,0.5,3.7,2
	c0,0.1,0.1,0.2,0.1,0.3c0.6-2,2.2-3.6,4.3-4.1c1.8-0.4,3.5,0.7,3.9,2.4c0,0.1,0.1,0.3,0.1,0.4c0.2,0.8,0.2,1.6,0.3,2.3l0.2,8.3
	l-2.3,0.5l-0.2-8.1c0-0.6-0.1-1.2-0.2-1.8c-0.3-1.4-1-2.2-2.5-1.9c-1.7,0.4-3.2,2.7-3.1,5.8l0.2,7.2l-2.2,0.5l-0.2-8.2
	c0-0.6-0.1-1.1-0.2-1.7c-0.2-1.1-0.8-2.2-2.5-1.9s-3.3,3-3.2,6l0.2,7L295.5,149.9z"/>
<path class="st0" d="M326.9,143.1c-0.2-1.2-0.4-2.4-0.5-3.6l0,0c-0.9,3.1-2.5,4.5-4.4,4.9c-2.4,0.5-4.3-1.1-4.8-3.6
	c-1.2-5.2,2-10.4,7.1-11.6c0.1,0,0.1,0,0.2,0c1.2-0.3,2.5-0.3,3.7-0.2l0.1,7.3c0,2.1,0.3,4.3,0.8,6.4L326.9,143.1z M325.9,131.1
	c-0.6,0-1.1,0-1.6,0.1c-3.5,0.8-5.5,5-4.8,8.7c0.3,1.5,1.2,2.9,2.9,2.5s3.7-3.4,3.6-7.1L325.9,131.1z M326.9,123.2L324,128l-1.8,0.4
	l1.9-4.6L326.9,123.2z"/>
<path class="st0" d="M332.1,139.6c1,0.3,2.1,0.4,3.1,0.2c1.3-0.1,2.2-1.3,2.1-2.6v-0.1c-0.2-1.1-0.8-1.6-2.4-2.1
	c-1.5-0.3-2.7-1.4-3.1-2.9c-0.5-2.4,1.1-4.6,4-5.2c1-0.2,2-0.2,3,0.1l-0.3,1.9c-0.8-0.2-1.6-0.3-2.5-0.1c-1.2,0.1-2.1,1.2-2,2.4v0.1
	c0.2,1,1,1.5,2.3,1.9c1.7,0.5,3,1.5,3.3,3c0.6,2.8-1.4,4.9-4.2,5.6c-1.2,0.3-2.4,0.2-3.5-0.2L332.1,139.6z"/>
<path class="st0" d="M348.1,124.6l2.9,7c0.6,1.5,1,2.4,1.4,3.4h0.1c0.2-0.9,0.4-2,0.7-3.6l1.8-8.2l2.5-0.5l-2.9,11.3
	c-0.6,2.8-1.6,5.6-3.1,8.1c-0.8,1.4-2,2.5-3.4,3.2l-1-1.9c0.8-0.5,1.6-1.1,2.2-1.8c0.9-1.1,1.5-2.3,1.9-3.6c0.1-0.2,0.1-0.4,0-0.6
	l-5.4-12.1L348.1,124.6z"/>
<path class="st0" d="M365.4,134.9l-0.2-9.9c0-1.6-0.1-2.9-0.2-4l2-0.4l0.2,2.6h0.1c0.6-1.9,2.2-3.4,4.1-3.8c1.6-0.5,3.3,0.5,3.7,2
	c0,0.1,0.1,0.2,0.1,0.3c0.6-2,2.2-3.6,4.3-4.1c1.8-0.4,3.5,0.7,3.9,2.4c0,0.1,0.1,0.3,0.1,0.4c0.2,0.8,0.3,1.5,0.3,2.3l0.2,8.3
	l-2.3,0.5l-0.2-8.1c0-0.6-0.1-1.2-0.2-1.8c-0.3-1.4-1-2.2-2.5-1.9c-1.7,0.3-3.2,2.7-3.1,5.8l0.2,7.2l-2.2,0.5l-0.2-8.2
	c0-0.6-0.1-1.1-0.2-1.7c-0.2-1.1-0.8-2.3-2.5-1.9s-3.3,3-3.2,6l0.2,7L365.4,134.9z"/>
<path class="st0" d="M397.4,127.3c-1.2,1-2.7,1.7-4.2,2c-3.6,0.8-5.6-1.3-6.3-4.3c-0.9-4.1,1.2-9.3,5.5-10.2
	c2.6-0.5,4.3,0.7,4.7,2.6c0.8,3.5-3,5.3-8,6.3c0.1,0.9,0.3,1.7,0.8,2.5c0.8,1.1,2.1,1.5,3.4,1.2s2.4-0.9,3.4-1.7L397.4,127.3z
	 M394.9,117.9c-0.2-1.1-1.2-1.5-2.4-1.3c-2.2,0.5-3.4,3-3.5,5.2C392.6,121.1,395.3,120,394.9,117.9L394.9,117.9z"/>
<path class="st0" d="M402.6,112.9l0.3,13.9c0.1,2.3-0.1,3.9-0.7,4.9s-1.6,1.8-2.8,2c-0.5,0.1-1,0.2-1.6,0.2l-0.1-1.9
	c0.4,0,0.7,0,1.1-0.1c1.2-0.3,1.9-1.2,1.9-4.1l-0.4-14.4L402.6,112.9z M401.4,110.8c-0.7,0.2-1.4-0.3-1.6-1v-0.1
	c-0.2-0.9,0.4-1.7,1.2-1.9c0.7-0.2,1.5,0.3,1.7,1.1v0.1C402.9,109.7,402.3,110.6,401.4,110.8C401.5,110.8,401.5,110.8,401.4,110.8
	L401.4,110.8z"/>
<path class="st0" d="M418,115.2c0.9,4.1-1.1,9.1-5.7,10c-3.4,0.7-5.8-1.4-6.5-4.4c-0.9-4.4,1.3-9.2,5.6-10.1
	C415.2,109.9,417.4,112.3,418,115.2 M408.3,120.2c0.5,2.2,2,3.5,4,3.1c2.7-0.6,4.1-4.5,3.4-7.7c-0.3-1.6-1.5-3.6-4-3.1
	C408.8,113.2,407.6,117.1,408.3,120.2"/>
<path class="st0" d="M421.3,123l-0.2-9c0-1.8-0.2-3.7-0.3-4.9l2-0.4c0.1,1,0.2,1.9,0.3,3h0.1c0.5-2,1.6-3.7,3.4-4.1
	c0.2,0,0.4-0.1,0.6-0.1v2.4c-0.2,0-0.4,0-0.6,0.1c-2,0.4-3.3,3.2-3.2,6.5l0.1,6.2L421.3,123z"/>
<path class="st0" d="M444.2,118.2c-0.2-1.2-0.4-2.4-0.4-3.5h-0.1c-0.9,3.1-2.5,4.5-4.4,4.9c-2.4,0.5-4.3-1.1-4.8-3.6
	c-1.2-5.2,2-10.4,7.2-11.6h0.1c1.2-0.3,2.5-0.3,3.7-0.2l0.1,7.3c0,2.1,0.3,4.3,0.8,6.4L444.2,118.2z M443.2,106.1
	c-0.6,0-1.1,0-1.7,0.2c-3.5,0.7-5.5,5-4.8,8.7c0.3,1.5,1.2,2.8,2.9,2.5s3.7-3.4,3.6-7.1V106.1z"/>
<path class="st0" d="M450.6,120c1.2,0.4,2.5,0.4,3.8,0.1c2.3-0.5,3.8-2,3.8-5.8v-2.1h-0.1c-0.6,1.9-2.1,3.4-4.1,3.8
	c-2.7,0.6-4.6-1.4-5.1-3.8c-1-4.6,1.4-9.8,6.6-10.9c1.5-0.3,3-0.3,4.5,0l0.3,11.6c0,2.9-0.3,5.1-1.5,6.6c-1.1,1.3-2.7,2.2-4.4,2.5
	c-1.4,0.3-2.9,0.3-4.2-0.1L450.6,120z M457.8,103.3c-0.8-0.2-1.6-0.2-2.3,0c-3.4,0.7-4.9,4.7-4.3,8.1c0.3,1.5,1.2,3.1,3.3,2.7
	s3.5-3.3,3.4-6.1L457.8,103.3z"/>
<path class="st0" d="M474.7,97.6l0.2,9.9c0,1.6,0.1,2.9,0.2,4.1L473,112l-0.2-2.6h-0.1c-0.7,1.9-2.2,3.3-4.1,3.8
	c-1.7,0.4-3.7-0.1-4.4-3.1c-0.1-0.8-0.2-1.5-0.2-2.3l-0.2-7.9l2.3-0.5l0.2,7.8c0,0.7,0,1.3,0.2,2c0.3,1.4,1.1,2.2,2.7,1.9
	s3.4-2.8,3.3-5.8l-0.2-7.2L474.7,97.6z"/>
<path class="st0" d="M487.9,108.8c-0.2-1.2-0.4-2.4-0.4-3.6h-0.1c-0.9,3.1-2.5,4.5-4.4,4.9c-2.4,0.5-4.3-1.1-4.8-3.6
	c-1.2-5.2,2-10.3,7.2-11.5h0.1c1.2-0.3,2.5-0.4,3.7-0.3l0.1,7.3c0,2.1,0.3,4.3,0.8,6.4L487.9,108.8z M486.9,96.8
	c-0.6,0-1.1,0-1.7,0.2c-3.5,0.8-5.5,5-4.8,8.7c0.3,1.5,1.2,2.8,2.9,2.5s3.7-3.4,3.6-7.1V96.8z"/>
<path d="M445.6,78.9c1.2,0,2.3,0.3,3.3,0.9c1.1,0.6,2,1.4,2.5,2.5c0.6,1,0.9,2.2,0.9,3.4c0,1.2-0.3,2.3-0.9,3.3
	c-0.6,1.1-1.4,1.9-2.5,2.5c-2.1,1.2-4.6,1.2-6.7,0c-1.1-0.6-1.9-1.4-2.5-2.5c-0.6-1-0.9-2.2-0.9-3.3c0-1.2,0.3-2.4,0.9-3.4
	c0.6-1.1,1.5-1.9,2.5-2.5C443.3,79.2,444.4,78.9,445.6,78.9 M445.6,80c-1,0-1.9,0.3-2.8,0.7c-0.9,0.5-1.6,1.2-2.1,2.1
	s-0.8,1.8-0.8,2.8s0.3,1.9,0.8,2.8s1.2,1.6,2.1,2.1c0.8,0.5,1.8,0.8,2.8,0.8s1.9-0.3,2.8-0.8s1.6-1.2,2.1-2.1
	c0.5-0.8,0.7-1.8,0.7-2.8s-0.3-2-0.8-2.8c-0.5-0.9-1.2-1.6-2.1-2.1C447.5,80.3,446.6,80,445.6,80 M442.6,89.3V82h2.5
	c0.6,0,1.2,0,1.9,0.2c0.4,0.1,0.7,0.4,0.9,0.7c0.2,0.3,0.3,0.7,0.4,1.1c0,0.5-0.2,1-0.6,1.4s-0.9,0.6-1.5,0.7
	c0.2,0.1,0.4,0.2,0.6,0.4c0.4,0.4,0.8,0.9,1.1,1.4l0.9,1.4h-1.4l-0.7-1.2c-0.3-0.6-0.7-1.2-1.2-1.7c-0.3-0.2-0.6-0.3-1-0.3h-0.7v3.1
	L442.6,89.3z M443.8,85.3h1.4c0.5,0.1,1,0,1.4-0.3c0.2-0.2,0.4-0.5,0.4-0.8c0-0.2-0.1-0.4-0.2-0.6s-0.3-0.3-0.5-0.4
	c-0.4-0.1-0.8-0.1-1.2-0.1h-1.3L443.8,85.3z"/>
<path d="M384.8,88.7V70c0-5.2-1.1-9.2-3.2-12c-1.9-2.7-4.8-4.7-8-5.5c-3.7-0.8-7.4-0.8-11.1,0.1c-5.7,1.2-11.8,4-18.1,8.3v14.8
	c4.5-4.5,9-7.3,13.3-8.6c3.1-0.9,6.2-1.4,7.7-0.7c2.4,1.1,2.3,2.9,2.3,5.1c-19.2,6.5-28.8,15.3-28.8,26.4c0,4.9,1.7,8.8,5.1,11.5
	c3.2,2.7,7.5,3.7,11.6,2.7c2.3-0.5,4.5-1.5,6.4-3c2.2-1.7,4.2-3.8,5.8-6.1c0,5.1,2.7,4.8,3.9,4.5s16.5-3.5,16.5-3.5
	C386,103.3,384.3,101.1,384.8,88.7 M367.8,87.9c0.1,2.2-0.5,4.4-1.5,6.4c-0.9,1.7-2.4,2.9-4.3,3.3c-1.5,0.4-3.1-0.1-4.2-1.1
	c-1.2-1.2-1.9-2.8-1.8-4.4c0-5.1,3.9-8.9,11.7-11.2L367.8,87.9z"/>
<path d="M204.2,100.6l-8.4,1.8v22.8c0,3.5,1.4,5,4.2,4.4c1.6-0.4,3.1-1.3,4.2-2.4v15.1c-3.3,1.9-6.8,3.2-10.5,4
	c-5.8,1.2-10,0.7-12.7-1.4s-4.1-6.2-4.1-11.9v-26.4l-6.8,1.4V94c0,0,5.6-1.2,6.8-1.4c-0.7-13.3,2.8-14.4,6.8-15.3l11.2-2.1v13.7
	l9.2-1.9L204.2,100.6z"/>
<path d="M325,43.5c-1.7,0.5-8.4,3.2-8.5,14.9v60.7l10.1-2.1c1.8-0.5,8.4-3.2,8.5-14.8V41.4L325,43.5z"/>
<path d="M307.1,72.7c-3.5-4.8-8.2-6.7-14.1-5.4c-2.5,0.5-4.9,1.7-6.9,3.3c-2,1.6-3.7,3.6-5,5.8c0-2.6,0.3-5.2-2.5-4.8
	c-3,0.6-16.8,3.6-16.8,3.6c0.5,0.7,0.9,1.6,0.9,2.5c0.1,1.6,0,78.9,0,78.9l11.4-2.4c4.1-1.1,7.3-1.7,7.3-11.1v-19.5
	c1.5,1.1,3.2,1.8,5,2.3c1.8,0.4,3.7,0.4,5.5,0c4.1-0.9,7.8-3.1,10.5-6.3c3.2-3.6,5.7-7.8,7.3-12.3c1.8-5,2.7-10.4,2.7-15.7
	C312.4,83.9,310.6,77.6,307.1,72.7 M291.5,106.4c-1.2,2.7-3,4.2-5.2,4.7c-0.9,0.2-1.9,0.2-2.8-0.2c-0.9-0.4-1.7-1-2.4-1.8V95.6
	c-0.1-2.7,0.4-5.3,1.5-7.8c0.8-1.7,2.4-3,4.3-3.4c2-0.4,3.5,0.4,4.7,2.4s1.8,5.1,1.8,9.4C293.5,99.7,292.9,103.2,291.5,106.4"/>
<path d="M425.7,92.3c-4.4,4.7-10.2,7.8-16.6,9c-6.1,1.2-12.4,0.8-18.3-1v-17c5.9,3.7,11.1,5,15.4,4.1c1.6-0.3,3.1-1.1,4.3-2.2
	c1.1-1,1.8-2.4,1.8-3.9c0-1-0.5-2-1.4-2.5c-1.7-0.8-3.5-1.3-5.3-1.5c-6.2-1.1-10.2-2.9-12.1-5.3c-1.7-2.3-2.7-5-2.7-7.9
	c0-5.2,2.1-9.8,6.4-13.8c4.3-4.1,9.7-6.8,15.5-8c5.2-1.1,10.6-1,15.7,0.4v16.5c-4.3-2.8-8.4-3.8-12.4-3c-1.5,0.2-2.8,0.8-4,1.7
	c-0.9,0.7-1.4,1.8-1.3,3c0,1.7,1.9,2.7,5.8,3.1c10.4,1.3,15.6,5.7,15.7,13.4C432.2,82.6,430.1,87.6,425.7,92.3"/>
<path d="M162.4,102c-4.9-4-11.2-5.3-18.9-3.6c-7.5,1.5-14.2,5.8-18.7,12.1c-4.8,6.6-7.3,14.6-7.1,22.7c0,8.4,2.3,14.8,6.8,19.3
	c4.5,4.5,10.8,5.9,18.9,4.1c7.8-1.5,14.6-5.9,19.2-12.3c4.8-6.6,7.3-14.5,7.1-22.7C169.7,112.6,167.3,106,162.4,102 M148.8,137.4
	c-1.1,2.7-2.9,4.3-5.2,4.8c-2.1,0.6-4.3-0.5-5.1-2.6c-1.2-2.2-1.7-5.8-1.7-10.7c0-4.9,0.6-8.8,1.7-11.5s2.9-4.3,5.2-4.8
	s4,0.4,5.2,2.6s1.7,5.8,1.7,10.8C150.5,131,149.9,134.7,148.8,137.4"/>
<path d="M251.5,83.6c-4.9-4-11.2-5.2-18.9-3.6c-7.6,1.5-14.3,5.8-18.7,12.1c-4.8,6.6-7.3,14.6-7.1,22.8c0,8.4,2.3,14.8,6.8,19.3
	s10.8,5.8,18.9,4.2c7.7-1.5,14.6-5.9,19.2-12.3c4.8-6.6,7.2-14.5,7.1-22.7C258.9,94.2,256.4,87.6,251.5,83.6 M237.9,119
	c-1.1,2.7-2.9,4.3-5.2,4.8c-2.1,0.6-4.3-0.6-5.1-2.6c-1.2-2.2-1.7-5.8-1.7-10.6s0.6-8.8,1.7-11.5s2.9-4.3,5.2-4.8s4,0.4,5.2,2.6
	s1.7,5.8,1.7,10.8S239.1,116.3,237.9,119"/>
<path d="M112.8,138c-1-4.5-3.8-8.7-7.8-9.9c6.9-3.7,12.5-9.9,12.5-21.7c0-5.8-2.6-12-6.4-14.4s-8.2-2.8-16.4-0.9
	c0,0-21.3,4.6-28.9,5.9c1.6,0.2,2,1.1,2.1,2.9s0,70.8,0,70.8l10.2-2c4.7-1.1,8.3-2.8,8.5-10.8l-0.1-21.6l1.7-0.4
	c2.4-0.5,6-0.7,7.7,4.7c0.8,2.8,2.1,11.5,2.9,17s4.6,5.8,7.4,5.3s13.7-2.7,14.7-3C115.9,158.8,114.1,144.2,112.8,138 M96.7,118.3
	c-1.6,2-3.8,3.3-6.3,3.7l-3.8,0.8l0.1-16l4.7-0.9c2.6-0.5,4.5-0.3,5.7,0.7s1.9,2.7,1.9,5.2C98.9,114.1,98.1,116.4,96.7,118.3"/>
<path class="st1" d="M121.3,62L121.3,62c-0.1-0.1-0.2-0.2-0.2-0.2c-3.2-3-8.3-3.2-8.3-3.2c-3.2-0.3-6.5-0.3-9.7,0.2
	C53.3,63.4,10,107.3,10,160.1c0,6.3,1.2,17.2,2,22.8l1.2-0.3c-0.4-3.2-0.9-10.3-0.9-13.6c0-50,41-90.9,90.2-90.9
	c3.3,0,10,0.5,12.3,0.4h0.1c5.2-0.2,9.3-4.4,9.3-9.6C124.3,66.3,123.3,63.8,121.3,62C121.4,62,121.3,62,121.3,62"/>
<path class="st0" d="M136.6,36.2c-3.1-1-8.8-1.5-12.5-1.5c-36,0-68.5,16-89.6,40.9C27,84.5,20.8,94.7,15.3,109l2-0.5
	c4.9-9.9,11.5-18.9,19.4-26.6C56.1,63.3,82.1,53.1,109,53.5c4.9,0.2,9.7,0.6,14.5,1.3c4,0.5,7.6,1.2,9.5,1.3l0,0c0.2,0,0.4,0,0.6,0
	c5.6,0,10.2-4.5,10.2-10.2C143.8,41.5,140.9,37.5,136.6,36.2"/>
<path class="st2" d="M82.3,35.9c5.8-1.6,14.6-2.8,19.2-3.7c4.1-0.7,6.9-4.6,6.2-8.7c-0.6-3.4-3.4-5.9-6.8-6.3
	c-2.6-0.3-6.4,0.4-10.3,1.3c-6.7,1.6-13.1,4.2-19,7.6c-20.1,12-28.3,26-33.8,35.9l1.9-0.1C51.6,49.5,64.8,40.8,82.3,35.9"/>
</svg>
